<?xml version="1.0" encoding="UTF-8" standalone="no"?>
<!-- Created with Inkscape (http://www.inkscape.org/) -->

<svg
   width="144.00951mm"
   height="65.938461mm"
   viewBox="0 0 144.00951 65.938461"
   version="1.1"
   id="svg1"
   inkscape:version="1.4 (86a8ad7, 2024-10-11)"
   sodipodi:docname="SaudeConecta logo.svg"
   xml:space="preserve"
   inkscape:export-filename="SaudeConecta logo.pdf"
   inkscape:export-xdpi="96"
   inkscape:export-ydpi="96"
   xmlns:inkscape="http://www.inkscape.org/namespaces/inkscape"
   xmlns:sodipodi="http://sodipodi.sourceforge.net/DTD/sodipodi-0.dtd"
   xmlns:xlink="http://www.w3.org/1999/xlink"
   xmlns="http://www.w3.org/2000/svg"
   xmlns:svg="http://www.w3.org/2000/svg"><sodipodi:namedview
     id="namedview1"
     pagecolor="#000000"
     bordercolor="#eeeeee"
     borderopacity="1"
     inkscape:showpageshadow="0"
     inkscape:pageopacity="0"
     inkscape:pagecheckerboard="0"
     inkscape:deskcolor="#505050"
     inkscape:document-units="mm"
     inkscape:zoom="0.17972959"
     inkscape:cx="1855.5654"
     inkscape:cy="-887.44431"
     inkscape:window-width="1920"
     inkscape:window-height="1009"
     inkscape:window-x="-8"
     inkscape:window-y="-8"
     inkscape:window-maximized="1"
     inkscape:current-layer="layer1"><inkscape:page
       x="-2.7207401e-05"
       y="1.8878732e-06"
       width="144.00951"
       height="65.938461"
       id="page1"
       margin="0"
       bleed="0" /></sodipodi:namedview><defs
     id="defs1"><linearGradient
       id="linearGradient2287"
       inkscape:collect="always"><stop
         style="stop-color:#256fff;stop-opacity:1;"
         offset="0.05445546"
         id="stop2287" /><stop
         style="stop-color:#2cdffc;stop-opacity:0.99215686;"
         offset="0.55693072"
         id="stop2289" /><stop
         style="stop-color:#008fe2;stop-opacity:0.98846155;"
         offset="1"
         id="stop2288" /></linearGradient><linearGradient
       inkscape:collect="always"
       xlink:href="#linearGradient2287"
       id="linearGradient68"
       gradientUnits="userSpaceOnUse"
       gradientTransform="matrix(1.8989868,0,0,1.8989868,245.15789,166.53988)"
       x1="64.389168"
       y1="-43.835781"
       x2="104.10069"
       y2="-26.97924" /></defs><g
     inkscape:label="Camada 1"
     inkscape:groupmode="layer"
     id="layer1"
     transform="translate(-756.49421,118.04525)"><g
       id="g69"
       transform="translate(219.34572,222.28996)"
       inkscape:export-filename="logoSaudeConectaBorda"
       inkscape:export-xdpi="96"
       inkscape:export-ydpi="96"><g
         id="g68"
         transform="matrix(0.55099411,0,0,0.55099411,385.93475,-372.21543)"
         inkscape:export-filename="g168.png"
         inkscape:export-xdpi="96"
         inkscape:export-ydpi="96"
         style="stroke:#ffffff;stroke-width:0.907451;stroke-linecap:round;stroke-linejoin:round;stroke-dasharray:none;stroke-opacity:1;paint-order:stroke fill markers"><path
           id="path68"
           style="fill:url(#linearGradient68);stroke:#ffffff;stroke-width:0.907451;stroke-linecap:round;stroke-linejoin:round;stroke-dasharray:none;stroke-opacity:1;paint-order:stroke fill markers"
           d="m 405.07304,96.063836 c -1.43834,-1.829047 -4.34354,-1.375674 -4.68652,1.133072 -0.29032,2.123787 2.39203,6.726082 4.89285,6.444142 1.76219,-0.19867 3.83229,-3.12561 4.39065,-4.631232 1.18749,-3.202184 -2.28103,-5.464524 -4.59698,-2.945982 M 391.2076,108.71475 c -2.16348,7.5e-4 -3.93713,1.77541 -3.9352,3.93892 7.6e-4,2.16162 1.77359,3.93443 3.9352,3.93519 h 6.89867 c 2.16347,0.002 3.93814,-1.77171 3.9389,-3.93519 0.002,-2.16536 -1.77356,-3.94085 -3.9389,-3.93892 z m 0,1.89899 h 6.89867 c 1.13787,-0.001 2.04094,0.90203 2.03991,2.03993 -3.9e-4,1.13683 -0.90309,2.03722 -2.03991,2.03621 h -6.89867 c -1.1358,-4e-4 -2.0358,-0.90041 -2.03622,-2.03621 -10e-4,-1.13686 0.89937,-2.03954 2.03622,-2.03993 z m 0,-0.94951 a 2.9867643,2.9867643 0 0 0 -2.9857,2.98944 2.9867643,2.9867643 0 0 0 2.9857,2.98571 h 6.89867 a 2.9867643,2.9867643 0 0 0 2.9894,-2.98571 2.9867643,2.9867643 0 0 0 -2.9894,-2.98944 z m 0,2.03993 a 0.94949342,0.94949342 0 0 0 -0.94949,0.94951 0.94949342,0.94949342 0 0 0 0.94949,0.94948 h 6.89867 a 0.94949342,0.94949342 0 0 0 0.94949,-0.94948 0.94949342,0.94949342 0 0 0 -0.94949,-0.94951 z m 6.89997,0.94789 h -6.89817 m 11.39579,-5.42275 c -1.43726,1e-5 -2.73576,0.49825 -3.82023,1.29072 -1.10964,0.81089 -2.26244,2.21017 -2.26244,4.13178 0,1.9216 1.15408,3.31814 2.26244,4.12808 1.08315,0.79151 2.38105,1.29442 3.82023,1.29442 2.97084,2e-5 5.4225,-2.45167 5.4225,-5.4225 0,-2.97082 -2.45166,-5.4225 -5.4225,-5.4225 z m 0,1.89898 c 1.92215,0 3.52351,1.60136 3.52351,3.52352 0,1.92216 -1.60136,3.52351 -3.52351,3.52351 -1.00728,0 -1.88012,-0.33173 -2.70011,-0.93095 -0.79477,-0.58077 -1.48357,-1.42662 -1.48357,-2.59256 0,-1.16593 0.6901,-2.01644 1.48357,-2.59628 0.81868,-0.59825 1.69092,-0.92724 2.70011,-0.92724 z m 0,-0.94948 c -1.22323,0 -2.3086,0.41361 -3.26016,1.10899 -0.95157,0.69534 -1.87303,1.82024 -1.87303,3.36401 0,1.54377 0.92146,2.66497 1.87303,3.36033 0.95156,0.69535 2.03693,1.11267 3.26016,1.11269 2.44649,0 4.47301,-2.02653 4.47301,-4.47302 0,-2.44648 -2.02652,-4.473 -4.47301,-4.473 z m 0,1.04221 c -0.94174,0 -1.86927,0.34222 -2.64447,0.9087 -0.77522,0.56647 -1.44649,1.42749 -1.44649,2.52209 0,1.0946 0.67127,1.95562 1.44649,2.5221 0.7752,0.56649 1.70273,0.90869 2.64447,0.90869 1.88352,1e-5 3.43079,-1.54728 3.43079,-3.43079 0,-1.88351 -1.54727,-3.43079 -3.43079,-3.43079 z m 0,1.89899 c 0.8572,0 1.5318,0.67459 1.5318,1.5318 0,0.85722 -0.6746,1.5318 -1.5318,1.5318 -0.42859,0 -1.07067,-0.21366 -1.52437,-0.54521 -0.4537,-0.33155 -0.6676,-0.71083 -0.6676,-0.98659 0,-0.27576 0.2139,-0.65502 0.6676,-0.98658 0.4537,-0.33155 1.09578,-0.54522 1.52437,-0.54522 z m -3.14303,1.5313 c 0,1.37035 1.77267,2.48125 3.14301,2.48125 1.37036,0 2.48126,-1.11088 2.48126,-2.48125 0,-1.37036 -1.1109,-2.48125 -2.48126,-2.48125 -1.37034,0 -3.14301,1.11089 -3.14301,2.48125 z m -7.64259,-26.347957 a 2.9867547,2.9867547 0 0 0 -2.98573,2.985729 v 20.206398 a 2.9867547,2.9867547 0 0 0 2.98573,2.98572 2.9867547,2.9867547 0 0 0 2.9857,-2.98572 V 89.289072 a 2.9867547,2.9867547 0 0 0 -2.9857,-2.985729 z m 26.68965,-2.514675 a 2.9867547,2.9867547 0 0 0 -2.98572,2.985728 v 20.773874 a 2.9867547,2.9867547 0 0 0 2.98572,2.98573 2.9867547,2.9867547 0 0 0 2.98941,-2.98573 V 86.774396 a 2.9867547,2.9867547 0 0 0 -2.98941,-2.985728 z m -10.71518,-2.407112 c -2.50867,0 -4.58799,2.07831 -4.58799,4.587989 0,2.509678 2.07932,4.587989 4.58799,4.587989 1.25433,-1.5e-5 2.35563,-0.425409 3.32694,-1.134952 0.97126,-0.709529 1.92494,-1.859196 1.92494,-3.453037 0,-1.593841 -0.95368,-2.747207 -1.92494,-3.456751 -0.97131,-0.709528 -2.07261,-1.131223 -3.32694,-1.131238 z m 2.3e-4,2.105587 c -1.37034,0 -2.48179,1.110456 -2.48179,2.480813 0,1.370356 1.11145,2.480797 2.48179,2.480797 1.37034,0 3.1432,-1.110441 3.1432,-2.480797 0,-1.370357 -1.77286,-2.480813 -3.1432,-2.480813 z m 3.66421,-0.507024 a 2.9867643,2.9867643 0 0 0 -2.9857,2.989426 2.9867643,2.9867643 0 0 0 2.9857,2.985713 h 6.89868 a 2.9867643,2.9867643 0 0 0 2.98941,-2.985713 2.9867643,2.9867643 0 0 0 -2.98941,-2.989426 z m 6.89999,2.987806 h -6.89819 m -6.2959,-27.652383 c -8.68113,1.84e-4 -16.32443,5.874315 -16.33797,13.860391 v 0.05929 12.858948 c -2.18006,-1.220235 -4.62328,-1.970762 -7.18423,-2.12151 l -0.0891,-0.0076 h -1.27958 l -0.0964,0.0076 c -0.49448,0.03148 -0.98639,0.08817 -1.47616,0.163125 -6.6143,0.790335 -12.14371,5.429439 -13.96794,11.790775 l -0.019,0.06311 -0.0153,0.06311 c -0.32903,1.37384 -0.50494,2.790712 -0.52296,4.213375 v 0.03698 0.03698 c 0.019,1.421064 0.19091,2.833514 0.51926,4.205954 l 0.0153,0.0631 0.0189,0.0631 c 1.82671,6.37768 7.37762,11.03003 14.01246,11.80563 l 0.0335,0.003 h 0.0297 c 0.62094,0.0596 1.26067,0.1569 2.14748,0.15577 0.003,-2e-5 0.003,0 0.008,0 h 0.0926 7.77396 c 7.9e-4,3.45823 0.002,10.0933 0,10.80047 v 0.0107 0.0153 c 0.0354,7.97352 7.67047,13.82317 16.33796,13.82329 8.68987,-1.8e-4 16.33483,-5.88488 16.33425,-13.87891 v -0.005 -0.003 -12.92573 c 2.32721,1.28788 4.91467,2.09408 7.64788,2.16233 l -0.28559,-0.0223 c 0.11568,0.0137 0.23559,0.0287 0.35606,0.0408 l 0.293,0.0296 0.29671,-0.0296 c 0.0608,-0.006 0.11828,-0.0156 0.17793,-0.0223 l 0.17795,-0.0187 c 0.46821,-0.0333 0.93453,-0.0834 1.39828,-0.15577 8.21662,-1.00902 14.48671,-7.91828 14.53911,-16.137682 v -0.01895 -0.01895 c -0.002,-0.387374 -0.0171,-0.776276 -0.0483,-1.164643 v -0.0076 c -0.0122,-0.151588 -0.0266,-0.298102 -0.0408,-0.437633 -0.76254,-7.489961 -6.62979,-13.497389 -14.1389,-14.564692 h -0.003 c -0.4573,-0.06479 -0.91849,-0.110482 -1.37972,-0.137377 l -0.0853,-0.0076 h -8.90521 V 72.191886 c -2.3e-4,-6.00946 -4.32516,-10.819039 -10.16255,-12.840428 -1.86687,-0.627775 -2.66891,-0.931776 -6.17137,-1.038254 z m 0,5.975124 c 6.05535,1.37e-4 10.35897,3.866786 10.35912,7.903802 V 88.94042 h 14.65782 c 0.28357,0.01711 0.56807,0.04202 0.84933,0.0816 4.86421,0.69139 8.55574,4.511065 9.03873,9.257564 0.0122,0.10498 0.0189,0.203375 0.026,0.296727 v 0.0031 l 0.003,0.0031 c 0.019,0.235328 0.0277,0.470396 0.0297,0.708413 -0.037,5.221116 -3.97612,9.598436 -9.31689,10.244156 l -0.0593,0.008 -0.0556,0.008 c -0.35487,0.0572 -0.71283,0.097 -1.07189,0.11873 l -0.0926,0.008 h -0.0153 l -0.0816,-0.008 -0.14089,-0.003 c -3.34233,-0.0836 -6.4395,-1.70257 -8.37111,-4.3506 l -5.40024,-7.403109 v 14.739419 13.75653 h 0.0704 c -0.002,0.008 -0.0704,0.003 -0.0704,0.0107 v -0.0107 c 2.7e-4,4.03731 -4.3034,7.90736 -10.35913,7.9075 -6.03971,-9e-5 -10.34485,-3.8514 -10.36282,-7.87783 0.003,-1.14442 0,-13.7862 0,-13.7862 v -2.98571 c 0,0 -14.58554,0.0388 -15.37355,-0.12607 -4.27225,-0.50285 -7.76325,-3.46089 -8.93116,-7.47727 -0.20717,-0.89459 -0.33044,-1.82152 -0.34494,-2.75946 0.0153,-0.93911 0.13722,-1.867554 0.34494,-2.763175 1.16912,-4.015761 4.6621,-6.975694 8.93487,-7.477263 l 0.0593,-0.0076 0.0593,-0.0107 c 0.31148,-0.04936 0.62721,-0.08191 0.94206,-0.103911 h 0.80854 c 3.25476,0.195215 6.22653,1.839376 8.07441,4.447052 l 5.42622,7.651577 V 85.955648 72.23621 v -0.0518 -0.0031 c 0.009,-4.031775 4.31511,-7.888827 10.36281,-7.88895 z" /></g><path
         d="m 544.80166,-285.10567 c -5.28563,-3.08328 -5.03787,-5.72609 -3.4687,-6.35926 0.2753,-0.11012 0.55059,-0.13765 0.82588,-0.13765 2.33999,0 4.37716,3.60634 3.30352,4.18445 -0.27529,0.13765 -0.30282,0.52306 0.0826,0.63318 0.16517,0.0551 0.468,0.0826 0.79835,0.0826 1.07364,0 2.64281,-0.38542 2.64281,-2.03717 0,-1.73435 -2.91811,-3.57881 -6.22162,-3.57881 -2.7254,0 -5.50586,1.81693 -5.50586,5.25809 0,2.5327 2.61528,4.04681 4.87268,5.53339 2.09223,1.34894 4.07434,2.67035 4.07434,4.3221 0,1.51412 -0.936,2.22988 -2.03717,2.22988 -3.49622,0 -4.67998,-4.92775 -3.49622,-5.69857 0.24777,-0.16517 0.33035,-0.63317 -0.33035,-0.63317 -1.01858,0 -3.1934,0.16517 -3.1934,2.53269 0,2.25741 3.33105,4.37716 6.30421,4.37716 4.10187,0 6.60703,-1.89952 6.60703,-4.67998 0,-2.50517 -2.80799,-4.59739 -5.25809,-6.02892 z m 16.65158,8.97456 c -0.30282,0.11011 -0.35788,-0.11012 -0.35788,-0.66071 v -7.01997 c 0,-2.7254 -2.42257,-3.8541 -4.92774,-3.8541 -2.64281,0 -5.34069,1.23882 -5.34069,3.1934 0,1.23882 1.404,1.70682 2.20235,1.56917 0.13765,-0.0275 0.35788,-0.27529 0.22023,-0.468 -0.55058,-0.77082 0.38541,-3.82657 2.39505,-3.82657 1.04612,0 1.81694,0.74329 1.81694,2.09222 v 2.11976 c -6.49692,0.68823 -7.37786,3.90916 -7.37786,4.90022 0.0275,2.4501 2.17482,3.52375 4.3221,3.52375 1.73435,0 2.80799,-0.85341 3.16587,-1.23882 0.22024,0.57811 0.74329,0.99105 1.45906,0.99105 1.62422,0 2.31246,-0.55058 2.64281,-0.85341 0.27529,-0.22023 0.0551,-0.60564 -0.22024,-0.46799 z m -5.50586,0.57811 c -1.43152,0 -2.4501,-1.21129 -2.61528,-2.67034 -0.38541,-3.55128 2.67034,-4.07434 4.1294,-4.3221 0,0 0,5.2581 0,6.08397 0,0.0826 0,0.16518 0.0275,0.2753 -0.22024,0.22023 -0.7433,0.63317 -1.54165,0.63317 z m 11.58619,-18.94016 -1.56918,3.33105 h 1.76188 l 2.61528,-3.33105 z m 6.33173,18.36205 c -0.30282,0.11011 -0.33035,-0.11012 -0.33035,-0.66071 l -0.0275,-10.40607 c 0,-0.30282 -0.46799,-0.30282 -0.46799,0.0275 0,0.85341 -2.80799,1.26634 -3.35858,1.26634 -0.35788,0 -0.35788,0.60565 0.0275,0.60565 0.1927,0 0.1927,0.16518 0.1927,0.27529 v 7.13009 c 0,1.04611 -0.74329,1.84446 -1.84446,1.84446 -1.21129,0 -1.84446,-0.96352 -1.84446,-2.03716 v -9.1122 c 0,-0.30282 -0.468,-0.30282 -0.468,0.0275 0,0.85341 -2.83552,1.26634 -3.35857,1.26634 -0.38541,0 -0.35789,0.60565 0.0275,0.60565 0.16517,0 0.16517,0.16518 0.16517,0.27529 v 7.5155 c 0,1.45905 1.32141,2.94564 3.74399,2.94564 2.14728,0 3.22092,-1.1287 3.5788,-1.62423 0.11012,0.77082 0.68824,1.37646 1.56918,1.37646 1.62422,0 2.31246,-0.55058 2.64281,-0.85341 0.27529,-0.22023 0.0551,-0.60564 -0.24777,-0.46799 z m 13.293,-0.0275 c -0.30282,0.13764 -0.33035,-0.0826 -0.33035,-0.66071 l -0.0275,-15.11358 c 0,-0.30282 -0.468,-0.30282 -0.468,0.0275 0,0.82588 -2.80799,1.26635 -3.35857,1.26635 -0.35788,0 -0.35788,0.60564 0.0275,0.60564 0.1927,0 0.1927,0.13765 0.1927,0.24776 v 3.05576 c -0.77082,-0.55059 -1.76187,-0.82588 -2.80799,-0.82588 -2.75293,0 -5.86374,1.95458 -5.86374,6.46938 0,4.18446 2.5327,6.55198 5.17551,6.55198 1.21129,0 2.47764,-0.49553 3.52375,-1.56917 0.13765,0.71576 0.68823,1.29387 1.54164,1.29387 1.62423,0 2.28493,-0.55058 2.64281,-0.85341 0.2753,-0.24776 0.0551,-0.60564 -0.24776,-0.49552 z m -3.96422,-0.68824 c -0.41294,0.52306 -1.21129,1.32141 -2.36752,1.32141 -1.43152,0 -2.67034,-1.70682 -2.67034,-5.75362 0,-3.11081 0.96352,-5.61598 3.11081,-5.61598 0.96353,0 1.56917,0.468 1.92705,0.79835 z m 15.82571,-0.41293 c -0.33035,0.46799 -0.99106,1.1287 -2.11976,1.1287 -2.83552,0 -4.62492,-3.33105 -4.62492,-3.33105 3.22093,0 6.99244,-1.29388 6.99244,-4.18445 0,-2.03717 -1.92705,-3.99175 -5.23057,-3.99175 -1.87199,0 -3.46869,0.68823 -4.62492,1.95458 -1.10117,1.23882 -1.67929,2.91811 -1.62423,4.76257 0.13765,3.8541 2.56023,6.35927 6.1941,6.35927 2.7254,0 4.70751,-1.18376 5.36821,-2.42258 0.13765,-0.24777 -0.19271,-0.44047 -0.33035,-0.27529 z m -5.42327,-9.74538 c 3.46869,0 2.28493,7.10256 -1.48659,7.10256 -1.1287,-1.01858 -1.87199,-7.10256 1.48659,-7.10256 z m 21.30401,6.82727 c 0,0 -1.54164,3.57881 -5.6435,3.57881 -6.74468,0 -7.73574,-14.15006 -2.91811,-15.16865 0.24776,-0.055 0.52306,-0.0826 0.77082,-0.0826 2.0647,0 3.6614,1.89952 4.21198,4.62492 l 3.22093,-0.96353 c -1.5967,-3.24845 -4.26704,-4.12939 -6.77221,-4.12939 -5.31315,0 -8.23126,3.99175 -8.23126,9.02961 0,2.64281 1.54164,8.42396 7.79079,8.80937 5.83622,0.35789 8.09362,-5.4508 8.09362,-5.4508 z m 6.4382,-7.54303 c -3.41364,0 -6.13904,3.00069 -6.13904,6.68962 0.0275,3.6614 2.78046,6.63456 6.19409,6.63456 3.41364,-0.0275 6.16657,-3.02822 6.16657,-6.68962 -0.0275,-3.68892 -2.80799,-6.66209 -6.22162,-6.63456 z m 0.055,12.91124 c -1.23881,0 -2.2574,-2.80799 -2.2574,-6.24915 -0.0275,-3.44116 0.96353,-6.24915 2.20235,-6.24915 1.23881,0 2.2574,2.78046 2.28493,6.22162 0,3.46869 -0.99106,6.24915 -2.22988,6.27668 z m 18.16571,-0.38541 c -0.24777,-0.1927 -0.35789,-0.41294 -0.35789,-0.99105 v -8.50656 c 0,-1.43152 -1.21129,-2.94563 -3.13834,-2.94563 -2.03716,0 -3.3861,1.07364 -4.0468,1.7894 v -1.3214 c 0,-0.2753 -0.468,-0.2753 -0.468,0.0551 0,0.82587 -2.83552,1.26634 -3.35858,1.26634 -0.38541,0 -0.35788,0.57812 0.0275,0.57812 0.16518,0 0.16518,0.16517 0.16518,0.27529 v 8.80938 c 0,0.57811 -0.11012,0.79835 -0.35788,0.99105 -0.19271,0.13765 -0.11012,0.38541 0.13764,0.38541 h 4.07434 c 0.24776,0 0.30282,-0.24776 0.13765,-0.38541 -0.24777,-0.1927 -0.35788,-0.41294 -0.35788,-0.99105 v -9.00208 c 0.44047,-0.44047 1.15623,-0.96353 1.98211,-0.96353 1.21129,0 1.56917,0.96353 1.56917,2.03717 v 7.92844 c 0,0.57811 -0.11012,0.79835 -0.35788,0.99105 -0.16518,0.13765 -0.11012,0.38541 0.13764,0.38541 h 4.07434 c 0.24776,0 0.33035,-0.24776 0.13765,-0.38541 z m 11.66877,-2.06469 c -0.33035,0.46799 -0.99105,1.1287 -2.11975,1.1287 -2.83552,0 -4.62492,-3.33105 -4.62492,-3.33105 3.22092,0 6.99244,-1.29388 6.99244,-4.18445 0,-2.03717 -1.92705,-3.99175 -5.23057,-3.99175 -1.87199,0 -3.46869,0.68823 -4.62492,1.95458 -1.10117,1.23882 -1.67929,2.91811 -1.62423,4.76257 0.13765,3.8541 2.56022,6.35927 6.19409,6.35927 2.7254,0 4.70751,-1.18376 5.36822,-2.42258 0.13764,-0.24777 -0.19271,-0.44047 -0.33036,-0.27529 z m -5.42327,-9.74538 c 3.46869,0 2.28493,7.10256 -1.48658,7.10256 -1.1287,-1.01858 -1.87199,-7.10256 1.48658,-7.10256 z m 17.31227,9.66279 c -0.63317,0.68823 -1.3214,1.15623 -2.4501,1.15623 -1.73435,0 -3.85411,-1.51411 -5.03787,-4.90022 -0.71576,-2.03717 -0.68823,-5.01033 0.88094,-5.72609 0.2753,-0.13765 0.55059,-0.19271 0.85341,-0.19271 1.54164,0 3.08328,1.65176 2.75293,3.08328 -0.0551,0.2753 0.0551,0.57812 0.35788,0.60565 1.67929,0.1927 2.86305,-0.936 2.45011,-1.95458 -0.57812,-1.34894 -2.09223,-2.36752 -4.7901,-2.36752 -3.68893,0 -6.33174,2.75293 -6.33174,6.55197 0,3.88163 2.42258,6.33174 6.13904,6.52445 2.80798,0.13764 4.59739,-1.32141 5.42327,-2.56023 0.0826,-0.16517 -0.16518,-0.30282 -0.24777,-0.22023 z m 6.08035,1.34893 c -0.13765,0.0551 -0.24776,0.0826 -0.35788,0.0826 -0.77082,0 -1.04611,-1.37646 -1.04611,-2.31246 v -8.61667 h 1.10117 c 0.24776,0 0.30282,-0.13765 0.30282,-0.24777 0,-0.13764 -0.0826,-0.30282 -0.33035,-0.30282 h -1.07364 v -4.34963 c 0,-0.13764 -0.13765,-0.22023 -0.30283,-0.22023 -0.11011,0 -0.24776,0.0826 -0.24776,0.27529 0,1.15623 -1.98211,2.09223 -2.69787,2.45011 -0.22024,0.11012 -0.38541,0.33035 -0.38541,0.60564 v 1.23882 h -0.60565 c -0.24776,0 -0.33035,0.13765 -0.33035,0.2753 0,0.13764 0.0826,0.27529 0.35788,0.27529 h 0.55059 v 9.05714 c 0,1.92705 0.82588,3.22093 2.91811,3.22093 0.93599,0 1.84446,-0.55059 2.36752,-0.96353 0.33035,-0.27529 0.055,-0.57811 -0.22024,-0.468 z m 11.61372,-0.13764 c -0.30283,0.11011 -0.35789,-0.11012 -0.35789,-0.66071 v -7.01997 c 0,-2.7254 -2.42257,-3.8541 -4.92774,-3.8541 -2.64281,0 -5.34068,1.23882 -5.34068,3.1934 0,1.23882 1.40399,1.70682 2.20234,1.56917 0.13765,-0.0275 0.35788,-0.27529 0.22023,-0.468 -0.55058,-0.77082 0.38541,-3.82657 2.39505,-3.82657 1.04612,0 1.81694,0.74329 1.81694,2.09222 v 2.11976 c -6.49692,0.68823 -7.37786,3.90916 -7.37786,4.90022 0.0275,2.4501 2.17482,3.52375 4.3221,3.52375 1.73435,0 2.80799,-0.85341 3.16587,-1.23882 0.22024,0.57811 0.7433,0.99105 1.45906,0.99105 1.62423,0 2.31246,-0.55058 2.64281,-0.85341 0.27529,-0.22023 0.0551,-0.60564 -0.22023,-0.46799 z m -5.50586,0.57811 c -1.43153,0 -2.45011,-1.21129 -2.61529,-2.67034 -0.38541,-3.55128 2.67034,-4.07434 4.1294,-4.3221 0,0 0,5.2581 0,6.08397 0,0.0826 0,0.16518 0.0275,0.2753 -0.22024,0.22023 -0.74329,0.63317 -1.54164,0.63317 z"
         id="text68"
         style="font-size:27.5293px;line-height:0;font-family:'The Bigmouth';-inkscape-font-specification:'The Bigmouth';letter-spacing:-1.21494px;word-spacing:0px;fill:#ffffff;stroke-width:27.2747;stroke-linecap:round"
         aria-label="SaúdeConecta" /></g></g></svg>
