<?xml version="1.0" encoding="UTF-8" standalone="no"?>
<!-- Created with Inkscape (http://www.inkscape.org/) -->

<svg
   width="163.51263mm"
   height="124.58042mm"
   viewBox="0 0 163.51263 124.58042"
   version="1.1"
   id="svg1"
   xml:space="preserve"
   sodipodi:docname="logoSaudeConecta.svg"
   xmlns:inkscape="http://www.inkscape.org/namespaces/inkscape"
   xmlns:sodipodi="http://sodipodi.sourceforge.net/DTD/sodipodi-0.dtd"
   xmlns:xlink="http://www.w3.org/1999/xlink"
   xmlns="http://www.w3.org/2000/svg"
   xmlns:svg="http://www.w3.org/2000/svg"><sodipodi:namedview
     id="namedview1"
     pagecolor="#505050"
     bordercolor="#eeeeee"
     borderopacity="1"
     inkscape:showpageshadow="0"
     inkscape:pageopacity="0"
     inkscape:pagecheckerboard="0"
     inkscape:deskcolor="#505050"
     inkscape:document-units="mm" /><defs
     id="defs1"><linearGradient
       id="linearGradient2287"><stop
         style="stop-color:#256fff;stop-opacity:1;"
         offset="0.05445546"
         id="stop2287" /><stop
         style="stop-color:#2cdffc;stop-opacity:0.99215686;"
         offset="0.55693072"
         id="stop2289" /><stop
         style="stop-color:#008fe2;stop-opacity:0.98846155;"
         offset="1"
         id="stop2288" /></linearGradient><linearGradient
       xlink:href="#linearGradient2287"
       id="linearGradient4"
       gradientUnits="userSpaceOnUse"
       gradientTransform="matrix(2.263833,0,0,2.263833,825.15933,-40.633795)"
       x1="64.389168"
       y1="-43.835781"
       x2="104.10069"
       y2="-26.97924" /></defs><g
     id="layer1"
     transform="translate(-934.11407,169.65467)"><path
       id="path39-8"
       style="fill:url(#linearGradient4);stroke:none;stroke-width:2.26383"
       d="m 1015.7982,-124.65018 c -1.7145,-2.18046 -5.178,-1.63998 -5.5869,1.35076 -0.346,2.53183 2.8518,8.01836 5.8329,7.68224 2.1008,-0.23683 4.5686,-3.72613 5.2343,-5.52102 1.4158,-3.81741 -2.7192,-6.5144 -5.4803,-3.51198 m -16.52908,15.08149 c -2.5793,8.9e-4 -4.69377,2.11651 -4.69151,4.69571 9.1e-4,2.57692 2.11433,4.69034 4.69151,4.69122 h 8.22388 c 2.5791,0.002 4.6948,-2.1121 4.6957,-4.69122 0,-2.5814 -2.1142,-4.69801 -4.6957,-4.69571 z m 0,2.26384 h 8.22388 c 1.3566,-0.001 2.4331,1.07533 2.4318,2.43187 -5e-4,1.35524 -1.0766,2.42861 -2.4318,2.42741 h -8.22388 c -1.3542,-4.8e-4 -2.42712,-1.0734 -2.42772,-2.42741 -10e-4,-1.35529 1.07217,-2.43141 2.42772,-2.43187 z m 0,-1.13194 a 3.5606019,3.5606019 0 0 0 -3.55931,3.56381 3.5606019,3.5606019 0 0 0 3.55931,3.55933 h 8.22388 a 3.5606019,3.5606019 0 0 0 3.5638,-3.55933 3.5606019,3.5606019 0 0 0 -3.5638,-3.56381 z m 0,2.43187 a 1.1319166,1.1319166 0 0 0 -1.13219,1.13194 1.1319166,1.1319166 0 0 0 1.13219,1.1319 h 8.22388 a 1.1319166,1.1319166 0 0 0 1.1318,-1.1319 1.1319166,1.1319166 0 0 0 -1.1318,-1.13194 z m 8.22548,1.13001 h -8.22352 m 13.58532,-6.46462 c -1.7136,0 -3.2615,0.59397 -4.5543,1.53869 -1.3227,0.9667 -2.6971,2.63481 -2.6971,4.92563 0,2.29077 1.3759,3.95564 2.6971,4.921189 1.2913,0.943582 2.8387,1.543104 4.5543,1.543104 3.5415,2.3e-5 6.4642,-2.922703 6.4642,-6.464293 0,-3.54161 -2.9227,-6.46432 -6.4642,-6.46432 z m 0,2.26382 c 2.2913,0 4.2004,1.90902 4.2004,4.2005 0,2.29145 -1.9091,4.20045 -4.2004,4.20045 -1.2009,0 -2.2415,-0.39546 -3.219,-1.10981 -0.9472,-0.69235 -1.7685,-1.70071 -1.7685,-3.09064 0,-1.38995 0.8226,-2.40387 1.7685,-3.0951 0.9758,-0.71319 2.0159,-1.1054 3.219,-1.1054 z m 0,-1.1319 c -1.4583,0 -2.7523,0.49307 -3.8865,1.32206 -1.1346,0.82894 -2.233,2.16997 -2.233,4.01034 0,1.84035 1.0984,3.17696 2.233,4.00593 1.1342,0.82894 2.4282,1.326443 3.8865,1.326466 2.9165,0 5.3323,-2.415876 5.3323,-5.332396 0,-2.91652 -2.4158,-5.3324 -5.3323,-5.3324 z m 0,1.24245 c -1.1229,0 -2.2285,0.40797 -3.1524,1.08329 -0.9243,0.67531 -1.7247,1.70175 -1.7247,3.00666 0,1.30488 0.8004,2.33133 1.7247,3.00666 0.9239,0.67532 2.0295,1.08327 3.1524,1.08327 2.2453,0 4.0899,-1.84456 4.0899,-4.08993 0,-2.24539 -1.8446,-4.08995 -4.0899,-4.08995 z m 0,2.26384 c 1.0216,0 1.8259,0.80419 1.8259,1.82611 0,1.0219 -0.8043,1.82609 -1.8259,1.82609 -0.511,0 -1.2764,-0.25471 -1.8173,-0.64995 -0.5409,-0.39526 -0.7958,-0.84741 -0.7958,-1.17614 0,-0.32875 0.2549,-0.78088 0.7958,-1.17614 0.5409,-0.39526 1.3063,-0.64997 1.8173,-0.64997 z m -3.7471,1.8255 c 0,1.63363 2.1134,2.95796 3.7471,2.95796 1.6335,0 2.9578,-1.32431 2.9578,-2.95796 0,-1.63364 -1.3243,-2.95797 -2.9578,-2.95797 -1.6337,0 -3.7471,1.32433 -3.7471,2.95797 z m -9.11082,-31.41011 a 3.5605904,3.5605904 0 0 0 -3.55932,3.55937 v 24.0886 a 3.5605904,3.5605904 0 0 0 3.55932,3.55935 3.5605904,3.5605904 0 0 0 3.55942,-3.55935 v -24.0886 a 3.5605904,3.5605904 0 0 0 -3.55942,-3.55937 z m 31.81742,-2.99781 a 3.5605904,3.5605904 0 0 0 -3.5593,3.55937 v 24.76509 a 3.5605904,3.5605904 0 0 0 3.5593,3.55938 3.5605904,3.5605904 0 0 0 3.5637,-3.55938 v -24.76509 a 3.5605904,3.5605904 0 0 0 -3.5637,-3.55937 z m -12.7737,-2.86958 c -2.9907,0 -5.4696,2.4776 -5.4696,5.46946 0,2.99186 2.4789,5.46947 5.4696,5.46947 1.4953,-2e-5 2.8079,-0.50714 3.9659,-1.35301 1.1581,-0.84585 2.295,-2.2164 2.295,-4.11646 0,-1.90006 -1.1369,-3.27502 -2.295,-4.12088 -1.158,-0.84585 -2.4706,-1.34857 -3.9659,-1.34858 z m 10e-5,2.51012 c -1.6336,0 -2.9586,1.32381 -2.9586,2.95745 0,1.63364 1.325,2.95742 2.9586,2.95742 1.6337,0 3.7471,-1.32378 3.7471,-2.95742 0,-1.63364 -2.1134,-2.95745 -3.7471,-2.95745 z m 4.3682,-0.60443 a 3.5606019,3.5606019 0 0 0 -3.5593,3.56377 3.5606019,3.5606019 0 0 0 3.5593,3.55935 h 8.2241 a 3.5606019,3.5606019 0 0 0 3.5637,-3.55935 3.5606019,3.5606019 0 0 0 -3.5637,-3.56377 z m 8.2258,3.56184 h -8.2237 m -7.5053,-32.96515 c -10.349,2.2e-4 -19.46075,7.00293 -19.47688,16.52335 v 0.0707 15.3295 c -2.59906,-1.45468 -5.51167,-2.3494 -8.56469,-2.52911 l -0.10708,-0.009 h -1.52553 l -0.11311,0.009 c -0.5897,0.0375 -1.17608,0.1051 -1.7599,0.19446 -7.88509,0.94218 -14.47692,6.47258 -16.65142,14.0561 l -0.0226,0.0752 -0.0226,0.0752 c -0.39213,1.63779 -0.60177,3.32688 -0.62319,5.02288 v 0.0441 0.0441 c 0.0226,1.69408 0.22744,3.37792 0.61896,5.01403 l 0.0226,0.0753 0.0226,0.0753 c 2.17797,7.60301 8.79528,13.1492 16.70481,14.07381 l 0.0407,0.005 h 0.0362 c 0.74022,0.071 1.50291,0.18697 2.56015,0.18561 0,-3e-5 0,0 0.0226,0 h 0.11161 9.26749 c 9.1e-4,4.122658 0,12.032487 0,12.875532 v 0.01357 0.01825 c 0.0437,9.505456 9.14418,16.478972 19.47688,16.479108 10.3596,-2.12e-4 19.4732,-7.015534 19.4726,-16.545423 v -0.0075 -0.0045 -15.409107 c 2.7743,1.53533 5.8587,2.4964 9.1172,2.57776 l -0.3403,-0.0266 c 0.1388,0.0159 0.2807,0.0341 0.4241,0.0487 l 0.3495,0.0353 0.3536,-0.0353 c 0.072,-0.007 0.1403,-0.0182 0.2116,-0.0266 l 0.2115,-0.0227 c 0.5582,-0.0396 1.1141,-0.0994 1.6671,-0.18561 9.7952,-1.20286 17.2698,-9.43959 17.3324,-19.23816 v -0.0225 -0.0225 c 0,-0.4618 -0.023,-0.92542 -0.057,-1.3884 v -0.009 c -0.023,-0.18072 -0.032,-0.35538 -0.05,-0.52172 -0.9091,-8.92898 -7.9036,-16.09059 -16.8553,-17.36295 v 0 c -0.5452,-0.0773 -1.0951,-0.1317 -1.6448,-0.16378 l -0.1026,-0.009 h -10.6161 v -12.8402 c -2e-4,-7.16404 -5.156,-12.89766 -12.1151,-15.30742 -2.2255,-0.74838 -3.1815,-1.11079 -7.3569,-1.23773 z m 0,7.12311 c 7.2187,1.6e-4 12.3491,4.6097 12.3493,9.42233 v 19.9633 h 17.474 c 0.338,0.0205 0.677,0.0501 1.0126,0.0973 5.7986,0.82423 10.1994,5.37776 10.775,11.03619 0.023,0.12515 0.023,0.24245 0.032,0.35374 v 0.004 0.004 c 0.023,0.28054 0.035,0.56077 0.036,0.84451 -0.044,6.22424 -4.7401,11.44254 -11.107,12.21234 l -0.071,0.009 -0.066,0.009 c -0.4229,0.0683 -0.8497,0.11556 -1.2778,0.14148 l -0.1086,0.009 h -0.023 l -0.098,-0.009 -0.1683,-0.005 c -3.9845,-0.0996 -7.6767,-2.02969 -9.9792,-5.18648 l -6.4379,-8.82544 v 17.57125 16.399513 h 0.085 c 0,0.009 -0.085,0.0045 -0.085,0.01357 v -0.01357 c 2e-4,4.812995 -5.1302,9.426594 -12.3494,9.426775 -7.2001,-1.21e-4 -12.3326,-4.591383 -12.3539,-9.391393 0,-1.364274 0,-16.434895 0,-16.434895 v -3.55933 c 0,0 -17.38798,0.0462 -18.32713,-0.15035 -5.09314,-0.59946 -9.25468,-4.12583 -10.64703,-8.91386 -0.24704,-1.06645 -0.39394,-2.17146 -0.41128,-3.28961 0.0226,-1.11954 0.16379,-2.22636 0.41128,-3.29406 1.39371,-4.78729 5.55781,-8.31591 10.6514,-8.91385 l 0.0709,-0.009 0.0709,-0.0127 c 0.37147,-0.0588 0.74791,-0.0977 1.12315,-0.12389 h 0.96373 c 3.88041,0.23272 7.42313,2.19277 9.62584,5.30145 l 6.46874,9.12165 v -17.98244 -16.35531 -0.0618 -0.004 c 0.023,-4.80639 5.1443,-9.40448 12.354,-9.40463 z" /><path
       d="m 942.80358,-57.23344 c -6.00137,-3.500849 -5.72009,-6.501578 -3.93847,-7.220502 0.31264,-0.12503 0.62514,-0.156288 0.93779,-0.156288 2.65681,0 4.96992,4.094744 3.75085,4.751153 -0.31249,0.156288 -0.34371,0.593894 0.0935,0.718925 0.18762,0.06251 0.53133,0.09377 0.90642,0.09377 1.21906,0 3.00083,-0.437606 3.00083,-2.313061 0,-1.969228 -3.31333,-4.063486 -7.06418,-4.063486 -3.09465,0 -6.2516,2.063001 -6.2516,5.970199 0,2.875698 2.96948,4.594865 5.53264,6.282775 2.37555,1.531621 4.62606,3.031986 4.62606,4.907441 0,1.719167 -1.06267,2.531864 -2.3131,2.531864 -3.9697,0 -5.31379,-5.595108 -3.9697,-6.47032 0.28143,-0.187546 0.37509,-0.718925 -0.37508,-0.718925 -1.15648,0 -3.62585,0.187546 -3.62585,2.875698 0,2.563122 3.78225,4.969957 7.15802,4.969957 4.65742,0 7.50186,-2.156774 7.50186,-5.31379 0,-2.844441 -3.1883,-5.220017 -5.9703,-6.845411 z m 18.90676,10.189973 c -0.34387,0.12503 -0.40631,-0.12503 -0.40631,-0.750182 v -7.970684 c 0,-3.094501 -2.75078,-4.376062 -5.59521,-4.376062 -3.00069,0 -6.06396,1.406591 -6.06396,3.62588 0,1.406591 1.59415,1.93797 2.50057,1.781682 0.1564,-0.03126 0.40645,-0.312576 0.25021,-0.531379 -0.6253,-0.875212 0.43752,-4.344804 2.71941,-4.344804 1.18769,0 2.06289,0.843955 2.06289,2.375576 v 2.406834 c -7.37668,0.78144 -8.37706,4.438578 -8.37706,5.563851 0.0317,2.781925 2.46935,4.000971 4.90748,4.000971 1.96924,0 3.1883,-0.968985 3.59461,-1.406592 0.25006,0.65641 0.84398,1.125274 1.65674,1.125274 1.84421,0 2.6256,-0.625152 3.00069,-0.968986 0.31249,-0.25006 0.0618,-0.687667 -0.25006,-0.531379 z m -6.25158,0.65641 c -1.62537,0 -2.78185,-1.375334 -2.96946,-3.031986 -0.43753,-4.032229 3.03205,-4.626123 4.68864,-4.907441 0,0 0,5.970199 0,6.907926 0,0.09377 0,0.187546 0.0317,0.312576 -0.25005,0.250061 -0.84383,0.718925 -1.7504,0.718925 z m 13.1553,-21.50522 -1.78162,3.782168 h 2.00045 l 2.96947,-3.782168 z m 7.18921,20.84881 c -0.34371,0.12503 -0.37508,-0.12503 -0.37508,-0.750182 l -0.0317,-11.815367 c 0,-0.343834 -0.53133,-0.343834 -0.53133,0.03126 0,0.968985 -3.1883,1.437849 -3.81345,1.437849 -0.4063,0 -0.4063,0.687667 0.0317,0.687667 0.21883,0 0.21883,0.187545 0.21883,0.312576 v 8.095714 c 0,1.187789 -0.84398,2.094259 -2.09426,2.094259 -1.37532,0 -2.09427,-1.094016 -2.09427,-2.313062 v -10.346261 c 0,-0.343833 -0.53133,-0.343833 -0.53133,0.03126 0,0.968986 -3.21952,1.437849 -3.81345,1.437849 -0.43767,0 -0.4063,0.687667 0.0317,0.687667 0.18761,0 0.18761,0.187546 0.18761,0.312576 v 8.533321 c 0,1.656652 1.50035,3.344562 4.25097,3.344562 2.43814,0 3.6572,-1.281561 4.06351,-1.844198 0.12518,0.875213 0.78139,1.56288 1.78162,1.56288 1.8442,0 2.62575,-0.625152 3.00083,-0.968986 0.3125,-0.25006 0.0618,-0.687666 -0.28143,-0.531378 z m 15.09331,-0.03126 c -0.34386,0.156288 -0.37508,-0.09377 -0.37508,-0.750182 l -0.0317,-17.160415 c 0,-0.343833 -0.53134,-0.343833 -0.53134,0.03126 0,0.937728 -3.1883,1.437849 -3.81344,1.437849 -0.40646,0 -0.40646,0.687667 0.0317,0.687667 0.21884,0 0.21884,0.156288 0.21884,0.281319 v 3.469592 c -0.8752,-0.625152 -2.00046,-0.937728 -3.18831,-0.937728 -3.12571,0 -6.65788,2.219289 -6.65788,7.345533 0,4.751153 2.87566,7.439305 5.87649,7.439305 1.37532,0 2.81307,-0.562636 4.00092,-1.781682 0.15624,0.812697 0.78139,1.469107 1.7504,1.469107 1.8442,0 2.59438,-0.625152 3.00068,-0.968986 0.31265,-0.281318 0.0618,-0.687667 -0.28128,-0.562636 z m -4.50102,-0.781439 c -0.4689,0.593894 -1.37532,1.500364 -2.68819,1.500364 -1.62537,0 -3.03206,-1.937971 -3.03206,-6.532836 0,-3.532107 1.09404,-6.376547 3.53217,-6.376547 1.09404,0 1.78162,0.531379 2.18808,0.90647 z m 17.96894,-0.468864 c -0.3751,0.531379 -1.1252,1.281561 -2.4069,1.281561 -3.21951,0 -5.25119,-3.782168 -5.25119,-3.782168 3.65709,0 7.93939,-1.469107 7.93939,-4.751153 0,-2.313062 -2.1881,-4.53235 -5.93893,-4.53235 -2.12548,0 -3.93847,0.78144 -5.25135,2.219288 -1.25028,1.406592 -1.90665,3.313305 -1.84406,5.407563 0.15625,4.376062 2.90688,7.220502 7.03282,7.220502 3.09462,0 5.34512,-1.344076 6.09532,-2.750667 0.1563,-0.281319 -0.2188,-0.500122 -0.3751,-0.312576 z m -6.15774,-11.065186 c 3.93844,0 2.59434,8.064458 -1.68796,8.064458 -1.28151,-1.156531 -2.12549,-8.064458 1.68796,-8.064458 z m 24.18914,7.751882 c 0,0 -1.7504,4.063486 -6.4078,4.063486 -7.6581,0 -8.7834,-16.066399 -3.3133,-17.22293 0.2814,-0.06252 0.5939,-0.09377 0.8753,-0.09377 2.3443,0 4.1572,2.156773 4.7823,5.251274 l 3.6572,-1.094015 c -1.813,-3.688395 -4.8449,-4.688638 -7.6893,-4.688638 -6.0327,0 -9.3461,4.53235 -9.3461,10.252488 0,3.000729 1.7504,9.564822 8.846,10.002428 6.6265,0.406349 9.1897,-6.189002 9.1897,-6.189002 z m 7.3102,-8.564579 c -3.876,0 -6.9705,3.407077 -6.9705,7.595594 0.032,4.157258 3.1571,7.533078 7.0329,7.533078 3.8761,-0.03126 7.0018,-3.438335 7.0018,-7.595594 -0.032,-4.188516 -3.1883,-7.564336 -7.0642,-7.533078 z m 0.062,14.659808 c -1.4065,0 -2.563,-3.188274 -2.563,-7.095472 -0.032,-3.907198 1.0939,-7.095472 2.5006,-7.095472 1.4065,0 2.563,3.157016 2.5944,7.064214 0,3.938456 -1.1253,7.095472 -2.532,7.12673 z m 20.626,-0.437606 c -0.2813,-0.218803 -0.4063,-0.468864 -0.4063,-1.125273 v -9.658594 c 0,-1.625395 -1.3755,-3.344562 -3.5634,-3.344562 -2.3131,0 -3.8447,1.219046 -4.5949,2.031743 v -1.500364 c 0,-0.312576 -0.5314,-0.312576 -0.5314,0.06252 0,0.937727 -3.2196,1.437849 -3.8135,1.437849 -0.4375,0 -0.4063,0.656409 0.032,0.656409 0.1875,0 0.1875,0.187545 0.1875,0.312576 v 10.002427 c 0,0.65641 -0.1252,0.90647 -0.4063,1.125273 -0.2189,0.156288 -0.1252,0.437607 0.1562,0.437607 h 4.6262 c 0.2813,0 0.3437,-0.281319 0.1563,-0.437607 -0.2813,-0.218803 -0.4063,-0.468863 -0.4063,-1.125273 v -10.22123 c 0.5001,-0.500122 1.3127,-1.094016 2.2505,-1.094016 1.3753,0 1.7816,1.094016 1.7816,2.313062 v 9.002184 c 0,0.65641 -0.1252,0.90647 -0.4063,1.125273 -0.1876,0.156288 -0.1252,0.437607 0.1562,0.437607 h 4.6262 c 0.2813,0 0.3751,-0.281319 0.1563,-0.437607 z m 13.2491,-2.344319 c -0.3751,0.531379 -1.1253,1.281561 -2.4069,1.281561 -3.2196,0 -5.2512,-3.782168 -5.2512,-3.782168 3.657,0 7.9394,-1.469107 7.9394,-4.751153 0,-2.313062 -2.1881,-4.53235 -5.939,-4.53235 -2.1255,0 -3.9384,0.78144 -5.2513,2.219288 -1.2503,1.406592 -1.9067,3.313305 -1.8442,5.407563 0.1564,4.376062 2.907,7.220502 7.0329,7.220502 3.0945,0 5.3452,-1.344076 6.0954,-2.750667 0.1562,-0.281319 -0.2189,-0.500122 -0.3751,-0.312576 z m -6.1578,-11.065186 c 3.9385,0 2.5944,8.064458 -1.6879,8.064458 -1.2816,-1.156531 -2.1255,-8.064458 1.6879,-8.064458 z m 19.6568,10.971413 c -0.7188,0.78144 -1.5004,1.312819 -2.7819,1.312819 -1.9692,0 -4.3761,-1.719168 -5.72,-5.563851 -0.8128,-2.313061 -0.7816,-5.68888 1.0002,-6.501578 0.3125,-0.156287 0.6251,-0.218803 0.969,-0.218803 1.7504,0 3.5008,1.875456 3.1257,3.50085 -0.063,0.312576 0.062,0.656409 0.4063,0.687667 1.9068,0.218803 3.2507,-1.062758 2.782,-2.219289 -0.6565,-1.531621 -2.3757,-2.688152 -5.4388,-2.688152 -4.1885,0 -7.1894,3.125758 -7.1894,7.439305 0,4.40732 2.7508,7.189245 6.9706,7.408048 3.1883,0.156288 5.2199,-1.500364 6.1577,-2.906955 0.094,-0.187546 -0.1876,-0.343834 -0.2814,-0.250061 z m 6.9039,1.531622 c -0.1563,0.06252 -0.2813,0.09377 -0.4063,0.09377 -0.8752,0 -1.1879,-1.56288 -1.1879,-2.625638 v -9.783624 h 1.2503 c 0.2813,0 0.3439,-0.156288 0.3439,-0.281318 0,-0.156288 -0.094,-0.343834 -0.3751,-0.343834 h -1.2191 v -4.938698 c 0,-0.156288 -0.1562,-0.250061 -0.3439,-0.250061 -0.1251,0 -0.2812,0.09377 -0.2812,0.312576 0,1.312818 -2.2505,2.375576 -3.0633,2.781925 -0.2501,0.12503 -0.4375,0.375091 -0.4375,0.687667 v 1.406591 h -0.6878 c -0.2812,0 -0.3751,0.156288 -0.3751,0.312576 0,0.156288 0.094,0.312576 0.4064,0.312576 h 0.6251 v 10.283746 c 0,2.188031 0.9378,3.657137 3.3133,3.657137 1.0628,0 2.0943,-0.625151 2.6882,-1.094015 0.3751,-0.312576 0.062,-0.656409 -0.25,-0.531379 z m 13.1865,-0.156288 c -0.3439,0.12503 -0.4063,-0.12503 -0.4063,-0.750182 v -7.970685 c 0,-3.094501 -2.7507,-4.376062 -5.5951,-4.376062 -3.0008,0 -6.064,1.406592 -6.064,3.62588 0,1.406592 1.594,1.937971 2.5006,1.781683 0.1563,-0.03126 0.4063,-0.312576 0.2501,-0.531379 -0.6252,-0.875213 0.4375,-4.344805 2.7194,-4.344805 1.1877,0 2.063,0.843955 2.063,2.375577 v 2.406834 c -7.3768,0.78144 -8.377,4.438577 -8.377,5.56385 0.032,2.781925 2.4693,4.000971 4.9073,4.000971 1.9692,0 3.1883,-0.968985 3.5948,-1.406591 0.25,0.656409 0.8438,1.125273 1.6565,1.125273 1.8443,0 2.6256,-0.625152 3.0007,-0.968985 0.3127,-0.250061 0.062,-0.687667 -0.25,-0.531379 z m -6.2515,0.656409 c -1.6255,0 -2.782,-1.375334 -2.9694,-3.031986 -0.4377,-4.032228 3.0319,-4.626122 4.6886,-4.907441 0,0 0,5.970199 0,6.907927 0,0.09377 0,0.187545 0.032,0.312576 -0.2501,0.25006 -0.844,0.718924 -1.7504,0.718924 z"
       id="text39-1"
       style="font-size:20.7253px;line-height:0;font-family:'The Bigmouth';-inkscape-font-specification:'The Bigmouth';letter-spacing:-0.914663px;word-spacing:0px;fill:#000000;stroke-width:30.9685;stroke-linecap:round"
       aria-label="SaúdeConecta" /></g></svg>
