<?xml version="1.0" encoding="UTF-8" standalone="no"?>
<!-- Created with Inkscape (http://www.inkscape.org/) -->

<svg
   width="124.30762mm"
   height="124.35984mm"
   viewBox="0 0 124.30762 124.35984"
   version="1.1"
   id="svg1"
   xml:space="preserve"
   sodipodi:docname="logoSaudeConectaIcon.svg"
   inkscape:version="1.4 (86a8ad7, 2024-10-11)"
   xmlns:inkscape="http://www.inkscape.org/namespaces/inkscape"
   xmlns:sodipodi="http://sodipodi.sourceforge.net/DTD/sodipodi-0.dtd"
   xmlns:xlink="http://www.w3.org/1999/xlink"
   xmlns="http://www.w3.org/2000/svg"
   xmlns:svg="http://www.w3.org/2000/svg"><sodipodi:namedview
     id="namedview1"
     pagecolor="#505050"
     bordercolor="#eeeeee"
     borderopacity="1"
     inkscape:showpageshadow="0"
     inkscape:pageopacity="0"
     inkscape:pagecheckerboard="0"
     inkscape:deskcolor="#505050"
     inkscape:document-units="mm"
     inkscape:zoom="1.7169429"
     inkscape:cx="235.01073"
     inkscape:cy="235.01073"
     inkscape:window-width="1920"
     inkscape:window-height="1009"
     inkscape:window-x="-8"
     inkscape:window-y="-8"
     inkscape:window-maximized="1"
     inkscape:current-layer="svg1"><inkscape:page
       x="-2.0063026e-14"
       y="0"
       width="124.30762"
       height="124.35984"
       id="page2"
       margin="0"
       bleed="0" /></sodipodi:namedview><defs
     id="defs1"><linearGradient
       id="linearGradient2287"><stop
         style="stop-color:#256fff;stop-opacity:1;"
         offset="0.05445546"
         id="stop2287" /><stop
         style="stop-color:#2cdffc;stop-opacity:0.99215686;"
         offset="0.55693072"
         id="stop2289" /><stop
         style="stop-color:#008fe2;stop-opacity:0.98846155;"
         offset="1"
         id="stop2288" /></linearGradient><linearGradient
       xlink:href="#linearGradient2287"
       id="linearGradient4"
       gradientUnits="userSpaceOnUse"
       gradientTransform="matrix(2.1815473,0,0,2.1815473,832.09172,-43.547362)"
       x1="64.389168"
       y1="-43.835781"
       x2="104.10069"
       y2="-26.97924" /></defs><g
     id="layer1"
     transform="matrix(1.2725497,0,0,1.2725497,-1230.6068,215.89301)"><path
       id="path39-8"
       style="fill:url(#linearGradient4);stroke:#ffffff;stroke-width:2.18154;stroke-linecap:round;stroke-linejoin:round;paint-order:stroke fill markers"
       d="m 1015.8013,-124.50992 c -1.6522,-2.10121 -4.9898,-1.58037 -5.3839,1.30166 -0.3334,2.4398 2.7482,7.72691 5.6209,7.40301 2.0245,-0.22822 4.4026,-3.5907 5.0441,-5.32035 1.3643,-3.67865 -2.6204,-6.27761 -5.2811,-3.38432 m -15.92833,14.53331 c -2.48554,8.5e-4 -4.52316,2.03958 -4.52098,4.52503 8.8e-4,2.48325 2.03748,4.51985 4.52098,4.5207 h 7.92493 c 2.4854,0.002 4.5242,-2.03533 4.5251,-4.5207 0,-2.48757 -2.0374,-4.52725 -4.5251,-4.52503 z m 0,2.18155 h 7.92493 c 1.3073,-9.6e-4 2.3447,1.03624 2.3434,2.34348 -4e-4,1.30598 -1.0374,2.34033 -2.3434,2.33918 h -7.92493 c -1.30497,-4.7e-4 -2.3389,-1.03439 -2.33947,-2.33918 -9.7e-4,-1.30603 1.0332,-2.34304 2.33947,-2.34348 z m 0,-1.0908 a 3.4311812,3.4311812 0 0 0 -3.42993,3.43428 3.4311812,3.4311812 0 0 0 3.42993,3.42995 h 7.92493 a 3.4311812,3.4311812 0 0 0 3.4343,-3.42995 3.4311812,3.4311812 0 0 0 -3.4343,-3.43428 z m 0,2.34348 a 1.0907737,1.0907737 0 0 0 -1.09103,1.0908 1.0907737,1.0907737 0 0 0 1.09103,1.09075 h 7.92493 a 1.0907737,1.0907737 0 0 0 1.0907,-1.09075 1.0907737,1.0907737 0 0 0 -1.0907,-1.0908 z m 7.92653,1.08894 h -7.92464 m 13.09154,-6.22965 c -1.6513,0 -3.143,0.57238 -4.3888,1.48276 -1.2746,0.93157 -2.599,2.53904 -2.599,4.7466 0,2.2075 1.3258,3.81186 2.599,4.74231 1.2444,0.909286 2.7355,1.487017 4.3888,1.487017 3.4128,2.2e-5 6.2292,-2.816467 6.2292,-6.229327 0,-3.41288 -2.8164,-6.22936 -6.2292,-6.22936 z m 0,2.18154 c 2.208,0 4.0477,1.83963 4.0477,4.04782 0,2.20816 -1.8397,4.04777 -4.0477,4.04777 -1.1573,0 -2.16,-0.38109 -3.102,-1.06947 -0.9128,-0.66718 -1.7042,-1.63889 -1.7042,-2.9783 0,-1.33943 0.7927,-2.3165 1.7042,-2.9826 0.9403,-0.68727 1.9426,-1.06522 3.102,-1.06522 z m 0,-1.09076 c -1.4053,0 -2.6523,0.47515 -3.7453,1.27401 -1.0933,0.79881 -2.1518,2.09109 -2.1518,3.86457 0,1.77346 1.0585,3.06148 2.1518,3.86032 1.093,0.79881 2.34,1.27823 3.7453,1.27825 2.8105,0 5.1385,-2.32806 5.1385,-5.13857 0,-2.81051 -2.328,-5.13858 -5.1385,-5.13858 z m 0,1.19729 c -1.0821,0 -2.1475,0.39314 -3.0378,1.04391 -0.8907,0.65077 -1.662,1.6399 -1.662,2.89738 0,1.25745 0.7713,2.24659 1.662,2.89737 0.8903,0.65078 1.9557,1.0439 3.0378,1.0439 2.1637,0 3.9412,-1.77752 3.9412,-3.94127 0,-2.16378 -1.7775,-3.94129 -3.9412,-3.94129 z m 0,2.18155 c 0.9845,0 1.7595,0.77496 1.7595,1.75974 0,0.98475 -0.775,1.75971 -1.7595,1.75971 -0.4924,0 -1.23,-0.24545 -1.7513,-0.62632 -0.5212,-0.3809 -0.7668,-0.81661 -0.7668,-1.13339 0,-0.3168 0.2456,-0.7525 0.7668,-1.13339 0.5213,-0.38089 1.2589,-0.62635 1.7513,-0.62635 z m -3.6109,1.75915 c 0,1.57425 2.0366,2.85044 3.6109,2.85044 1.5741,0 2.8503,-1.27617 2.8503,-2.85044 0,-1.57426 -1.2762,-2.85045 -2.8503,-2.85045 -1.5743,0 -3.6109,1.27619 -3.6109,2.85045 z m -8.7797,-30.26842 a 3.4311702,3.4311702 0 0 0 -3.42992,3.43 v 23.21303 a 3.4311702,3.4311702 0 0 0 3.42992,3.42997 3.4311702,3.4311702 0 0 0 3.4301,-3.42997 v -23.21303 a 3.4311702,3.4311702 0 0 0 -3.4301,-3.43 z m 30.6609,-2.88884 a 3.4311702,3.4311702 0 0 0 -3.4299,3.42999 v 23.86493 a 3.4311702,3.4311702 0 0 0 3.4299,3.43001 3.4311702,3.4311702 0 0 0 3.4342,-3.43001 v -23.86493 a 3.4311702,3.4311702 0 0 0 -3.4342,-3.42999 z m -12.3094,-2.76528 c -2.882,0 -5.2707,2.38755 -5.2707,5.27066 0,2.88311 2.3887,5.27066 5.2707,5.27066 1.441,-2e-5 2.7059,-0.4887 3.8218,-1.30383 1.116,-0.8151 2.2116,-2.13584 2.2116,-3.96683 0,-1.831 -1.0956,-3.15598 -2.2116,-3.9711 -1.1159,-0.8151 -2.3808,-1.29955 -3.8218,-1.29956 z m 1e-4,2.41888 c -1.5742,0 -2.851,1.2757 -2.851,2.84996 0,1.57426 1.2768,2.84992 2.851,2.84992 1.5744,0 3.6109,-1.27566 3.6109,-2.84992 0,-1.57426 -2.0365,-2.84996 -3.6109,-2.84996 z m 4.2095,-0.58246 a 3.4311812,3.4311812 0 0 0 -3.43,3.43424 3.4311812,3.4311812 0 0 0 3.43,3.42997 h 7.9251 a 3.4311812,3.4311812 0 0 0 3.4342,-3.42997 3.4311812,3.4311812 0 0 0 -3.4342,-3.43424 z m 7.9268,3.43238 h -7.9248 m -7.2325,-31.76694 c -9.9728,2.2e-4 -18.7534,6.74839 -18.76895,15.92276 v 0.0681 14.77231 c -2.50458,-1.40181 -5.31133,-2.26401 -8.25338,-2.43718 l -0.10318,-0.009 h -1.47008 l -0.109,0.009 c -0.56827,0.0361 -1.13333,0.10128 -1.69593,0.18739 -7.59849,0.90793 -13.95072,6.23731 -16.04618,13.54519 l -0.0218,0.0725 -0.0218,0.0725 c -0.37787,1.57826 -0.57989,3.20596 -0.60053,4.84031 v 0.0425 0.0425 c 0.0218,1.63251 0.21917,3.25514 0.59646,4.83178 l 0.0218,0.0726 0.0218,0.0726 c 2.0988,7.32666 8.47558,12.67125 16.09762,13.56225 l 0.0392,0.005 h 0.0349 c 0.71332,0.0684 1.44829,0.18018 2.4671,0.17887 0,-3e-5 0,0 0.0218,0 h 0.10755 8.93063 c 8.8e-4,3.972804 0,11.595127 0,12.407529 v 0.01308 0.01759 c 0.0421,9.159952 8.81177,15.879995 18.76887,15.880126 9.9831,-2.04e-4 18.7654,-6.760533 18.7649,-15.94403 v -0.0072 -0.0043 -14.849015 c 2.6734,1.47952 5.6457,2.40566 8.7858,2.48406 l -0.328,-0.0256 c 0.1338,0.0153 0.2705,0.0329 0.4087,0.0469 l 0.3368,0.034 0.3408,-0.034 c 0.069,-0.007 0.1352,-0.0175 0.2039,-0.0256 l 0.2038,-0.0219 c 0.5379,-0.0382 1.0736,-0.0958 1.6065,-0.17886 9.4392,-1.15914 16.6421,-9.09648 16.7024,-18.5389 v -0.0217 -0.0217 c 0,-0.44502 -0.022,-0.89178 -0.055,-1.33793 v -0.009 c -0.022,-0.17415 -0.031,-0.34246 -0.048,-0.50275 -0.8761,-8.60443 -7.6163,-15.50573 -16.2427,-16.73185 v 0 c -0.5253,-0.0745 -1.0553,-0.12691 -1.585,-0.15782 l -0.099,-0.009 h -10.2303 v -12.37348 c -2e-4,-6.90364 -4.9686,-12.42886 -11.6747,-14.75103 -2.1446,-0.72118 -3.0659,-1.07041 -7.0895,-1.19274 z m 0,6.8642 c 6.9563,1.6e-4 11.9002,4.44215 11.9004,9.07985 v 19.23768 h 16.8389 c 0.3257,0.0198 0.6524,0.0483 0.9758,0.0938 5.5878,0.79427 9.8286,5.18229 10.3833,10.63505 0.022,0.1206 0.022,0.23363 0.031,0.34088 v 0.004 0.004 c 0.022,0.27034 0.034,0.54038 0.035,0.81381 -0.042,5.998 -4.5678,11.02663 -10.7032,11.76845 l -0.068,0.009 -0.064,0.009 c -0.4075,0.0658 -0.8188,0.11136 -1.2313,0.13634 l -0.1047,0.009 h -0.022 l -0.094,-0.009 -0.1621,-0.005 c -3.8397,-0.096 -7.3977,-1.95591 -9.6165,-4.99796 l -6.2039,-8.50465 v 16.93257 15.803422 h 0.082 c 0,0.0087 -0.082,0.0043 -0.082,0.01308 v -0.01308 c 2e-4,4.638052 -4.9437,9.083956 -11.9005,9.084131 -6.9384,-1.17e-4 -11.8844,-4.424496 -11.9049,-9.050035 0,-1.314686 0,-15.837518 0,-15.837518 v -3.42996 c 0,0 -16.75597,0.0445 -17.66098,-0.14488 -4.90802,-0.57767 -8.91829,-3.97587 -10.26003,-8.58986 -0.23806,-1.02769 -0.37963,-2.09253 -0.39633,-3.17004 0.0218,-1.07885 0.15783,-2.14544 0.39633,-3.17433 1.34305,-4.61328 5.35579,-8.01364 10.26424,-8.58985 l 0.0683,-0.009 0.0683,-0.0122 c 0.35796,-0.0567 0.72072,-0.0941 1.08232,-0.11939 h 0.9287 c 3.73937,0.22426 7.15332,2.11307 9.27596,5.10876 l 6.23369,8.79009 v -17.32881 -15.76083 -0.0595 -0.004 c 0.022,-4.63169 4.9573,-9.06264 11.9049,-9.06279 z" /></g></svg>
